<svg width="375" height="80" viewBox="0 0 375 80" fill="none" xmlns="http://www.w3.org/2000/svg">
<mask id="path-1-inside-1_1_1116" fill="white">
<path d="M0 0H375V80H0V0Z"/>
</mask>
<path d="M0 0H375V80H0V0Z" fill="#040008"/>
<path d="M83.54 30.82L77.78 26.79C76.21 25.69 73.8 25.75 72.29 26.92L67.28 30.83C66.28 31.61 65.49 33.21 65.49 34.47V41.37C65.49 43.92 67.56 46 70.11 46H80.89C83.44 46 85.51 43.93 85.51 41.38V34.6C85.51 33.25 84.64 31.59 83.54 30.82ZM76.25 42C76.25 42.41 75.91 42.75 75.5 42.75C75.09 42.75 74.75 42.41 74.75 42V39C74.75 38.59 75.09 38.25 75.5 38.25C75.91 38.25 76.25 38.59 76.25 39V42Z" fill="white"/>
<circle cx="75.5" cy="56" r="4" fill="white"/>
<path d="M191.47 46.75H183.47C180.05 46.75 178.72 45.42 178.72 42V34C178.72 33.59 179.06 33.25 179.47 33.25H195.47C195.88 33.25 196.22 33.59 196.22 34V42C196.22 45.42 194.89 46.75 191.47 46.75ZM180.22 34.75V42C180.22 44.58 180.89 45.25 183.47 45.25H191.47C194.05 45.25 194.72 44.58 194.72 42V34.75H180.22Z" fill="#B3B0B6"/>
<path d="M195 34.75H180C178.25 34.75 177.25 33.75 177.25 32V31C177.25 29.25 178.25 28.25 180 28.25H195C196.7 28.25 197.75 29.3 197.75 31V32C197.75 33.7 196.7 34.75 195 34.75ZM180 29.75C179.09 29.75 178.75 30.09 178.75 31V32C178.75 32.91 179.09 33.25 180 33.25H195C195.88 33.25 196.25 32.88 196.25 32V31C196.25 30.12 195.88 29.75 195 29.75H180Z" fill="#B3B0B6"/>
<path d="M187.14 29.75H181.62C181.41 29.75 181.21 29.66 181.07 29.51C180.46 28.84 180.48 27.81 181.12 27.17L182.54 25.75C183.2 25.09 184.29 25.09 184.95 25.75L187.67 28.47C187.88 28.68 187.95 29.01 187.83 29.29C187.72 29.57 187.45 29.75 187.14 29.75ZM182.17 28.25H185.34L183.89 26.81C183.81 26.73 183.68 26.73 183.6 26.81L182.18 28.23C182.18 28.24 182.17 28.24 182.17 28.25Z" fill="#B3B0B6"/>
<path d="M193.37 29.75H187.85C187.55 29.75 187.27 29.57 187.16 29.29C187.04 29.01 187.11 28.69 187.32 28.47L190.04 25.75C190.7 25.09 191.79 25.09 192.45 25.75L193.87 27.17C194.51 27.81 194.54 28.84 193.92 29.51C193.78 29.66 193.58 29.75 193.37 29.75ZM189.67 28.25H192.84C192.83 28.24 192.83 28.24 192.82 28.23L191.4 26.81C191.32 26.73 191.19 26.73 191.11 26.81L189.67 28.25Z" fill="#B3B0B6"/>
<path d="M185.44 40.9C185.16 40.9 184.87 40.83 184.61 40.69C184.04 40.38 183.69 39.79 183.69 39.15V34C183.69 33.59 184.03 33.25 184.44 33.25H190.48C190.89 33.25 191.23 33.59 191.23 34V39.13C191.23 39.78 190.88 40.37 190.31 40.67C189.74 40.98 189.05 40.94 188.51 40.58L187.62 39.98C187.54 39.92 187.43 39.92 187.34 39.98L186.4 40.6C186.11 40.8 185.77 40.9 185.44 40.9ZM185.19 34.75V39.14C185.19 39.27 185.27 39.33 185.32 39.36C185.37 39.39 185.47 39.42 185.58 39.35L186.52 38.73C187.11 38.34 187.87 38.34 188.45 38.73L189.34 39.33C189.45 39.4 189.55 39.37 189.6 39.34C189.65 39.31 189.73 39.25 189.73 39.12V34.74H185.19V34.75Z" fill="#B3B0B6"/>
<path d="M299.66 35.62C299.63 35.62 299.61 35.62 299.58 35.62C299.53 35.61 299.46 35.61 299.4 35.62C296.5 35.53 294.31 33.25 294.31 30.44C294.31 27.58 296.64 25.25 299.5 25.25C302.36 25.25 304.69 27.58 304.69 30.44C304.68 33.25 302.48 35.53 299.69 35.62C299.68 35.62 299.67 35.62 299.66 35.62ZM299.5 26.75C297.47 26.75 295.81 28.41 295.81 30.44C295.81 32.44 297.37 34.05 299.36 34.12C299.41 34.11 299.55 34.11 299.68 34.12C301.64 34.03 303.18 32.42 303.19 30.44C303.19 28.41 301.53 26.75 299.5 26.75Z" fill="#B3B0B6"/>
<path d="M299.67 46.55C297.71 46.55 295.74 46.05 294.25 45.05C292.86 44.13 292.1 42.87 292.1 41.5C292.1 40.13 292.86 38.86 294.25 37.93C297.25 35.94 302.11 35.94 305.09 37.93C306.47 38.85 307.24 40.11 307.24 41.48C307.24 42.85 306.48 44.12 305.09 45.05C303.59 46.05 301.63 46.55 299.67 46.55ZM295.08 39.19C294.12 39.83 293.6 40.65 293.6 41.51C293.6 42.36 294.13 43.18 295.08 43.81C297.57 45.48 301.77 45.48 304.26 43.81C305.22 43.17 305.74 42.35 305.74 41.49C305.74 40.64 305.21 39.82 304.26 39.19C301.77 37.53 297.57 37.53 295.08 39.19Z" fill="#B3B0B6"/>
<path d="M0 1H375V-1H0V1Z" fill="#201828" mask="url(#path-1-inside-1_1_1116)"/>
</svg>
